# xmcd
#
# Track frame offsets: 
#        150
#        21300
#        45592
#        59180
#        72812
#        95715
#        117045
#        131800
#        147722
#        180057
#
# Disc length: 2782 seconds
#
# Revision: 0
# Processed by: cddbd v1.5.2PL0 Copyright (c) Steve Scherf et al.
# Submitted via: ExactAudioCopy v0.95a4
#
DISCID=940adc0a
DTITLE=Glenn R. Townsend - Can't Live Without Your Love
DYEAR=1996
DGENRE=Blues
TTITLE0=Can't Live Without Your Love (Radio Edit)
TTITLE1=Feelings Grown Cold (Radio Edit)
TTITLE2=The Jazzer
TTITLE3=Write Your Name
TTITLE4=Cange In me
TTITLE5=Breakdown
TTITLE6=I'm Through
TTITLE7=Turn Out The Lights
TTITLE8=Feelings Grown Cold
TTITLE9=Can't Live Without Your Love
EXTD=
EXTT0=
EXTT1=
EXTT2=
EXTT3=
EXTT4=
EXTT5=
EXTT6=
EXTT7=
EXTT8=
EXTT9=
PLAYORDER=
